<?xml version="1.0" encoding="UTF-8" standalone="no"?>
<svg
   id="reflexArcSvg"
   viewBox="0 0 760 420"
   aria-label="Simplified knee-jerk reflex arc diagram"
   version="1.1"
   sodipodi:docname="reflex-arc.svg"
   inkscape:version="1.4 (e7c3feb1, 2024-10-09)"
   xmlns:inkscape="http://www.inkscape.org/namespaces/inkscape"
   xmlns:sodipodi="http://sodipodi.sourceforge.net/DTD/sodipodi-0.dtd"
   xmlns="http://www.w3.org/2000/svg"
   xmlns:svg="http://www.w3.org/2000/svg">
  <defs
     id="defs16">
    <inkscape:path-effect
       effect="bspline"
       id="path-effect17"
       is_visible="true"
       lpeversion="1.3"
       weight="33.333333"
       steps="2"
       helper_size="0"
       apply_no_weight="true"
       apply_with_weight="true"
       only_selected="false"
       uniform="false" />
    <inkscape:path-effect
       effect="bspline"
       id="path-effect16"
       is_visible="true"
       lpeversion="1.3"
       weight="33.333333"
       steps="2"
       helper_size="0"
       apply_no_weight="true"
       apply_with_weight="true"
       only_selected="false"
       uniform="false" />
  </defs>
  <sodipodi:namedview
     id="namedview16"
     pagecolor="#ffffff"
     bordercolor="#000000"
     borderopacity="0.25"
     inkscape:showpageshadow="2"
     inkscape:pageopacity="0.0"
     inkscape:pagecheckerboard="0"
     inkscape:deskcolor="#d1d1d1"
     inkscape:zoom="0.75102574"
     inkscape:cx="466.0293"
     inkscape:cy="145.8006"
     inkscape:window-width="1296"
     inkscape:window-height="768"
     inkscape:window-x="221"
     inkscape:window-y="33"
     inkscape:window-maximized="0"
     inkscape:current-layer="reflexArcSvg" />
  <style
     id="style1">
    .arc-bg {
      fill: #f8fbff;
    }

    .arc-limb {
      fill: #ffd8bd;
      stroke: #d9936d;
      stroke-width: 2;
    }

    .arc-muscle {
      fill: #ff8668;
      stroke: #d15a3f;
      stroke-width: 2;
    }

    .arc-fibers {
      fill: none;
      stroke: rgba(162, 58, 45, 0.45);
      stroke-width: 2;
      stroke-linecap: round;
    }

    .arc-bone {
      stroke: #f6f9ff;
      stroke-width: 9;
      stroke-linecap: round;
      fill: none;
    }

    .arc-bone.femur {
      stroke-width: 11;
    }

    .arc-foot {
      fill: none;
      stroke: #f6f9ff;
      stroke-width: 8;
      stroke-linecap: round;
    }

    .arc-patella {
      fill: #fff0c8;
      stroke: #d89b2f;
      stroke-width: 2;
    }

    .arc-tendon {
      fill: none;
      stroke: #f4e6b2;
      stroke-width: 6;
      stroke-linecap: round;
    }

    .arc-tuberosity {
      fill: #f6f9ff;
      stroke: #8ca1cb;
      stroke-width: 1.4;
    }

    .arc-cord {
      fill: #fbe3f1;
      stroke: #c4709a;
      stroke-width: 2;
    }

    .arc-grey {
      fill: #f5bfdc;
      stroke: #bb628f;
      stroke-width: 1.4;
    }

    .arc-path {
      fill: none;
      stroke-width: 6;
      stroke-linecap: round;
      stroke-linejoin: round;
    }

    .arc-path.sensory {
      stroke: #2f75ff;
    }

    .arc-path.relay {
      stroke: #aa4ec7;
      stroke-width: 5;
    }

    .arc-path.motor {
      stroke: #00a891;
    }

    .arc-arrow {
      fill: #1d5db9;
    }

    .arc-caption {
      fill: #26456f;
      font-size: 16px;
      font-weight: 700;
      font-family: Outfit, &quot;Segoe UI&quot;, sans-serif;
    }

    .arc-caption.small {
      font-size: 13px;
    }

    .arc-title {
      fill: #1f3660;
      font-size: 22px;
      font-weight: 800;
      font-family: Outfit, &quot;Segoe UI&quot;, sans-serif;
    }

    .arc-hammer-handle {
      fill: #85633f;
    }

    .arc-hammer-head {
      fill: #c7d2e7;
      stroke: #7a8cab;
      stroke-width: 1.6;
    }

    #reflexImpulseDot {
      fill: #ffd24a;
      stroke: #ffffff;
      stroke-width: 2;
      opacity: 0;
      filter: drop-shadow(0 0 9px rgba(255, 190, 60, 0.95));
    }
  </style>
  <rect
     x="0"
     y="0"
     width="760"
     height="420"
     class="arc-bg"
     id="rect1" />
  <path
     d="m 346.01669,156.89839 c 63.29463,-46.77767 144.90256,-51.69022 203.89461,-11.08821 31.72644,22.22977 44.59275,54.17886 27.45459,78.40161 -25.70724,36.33413 -91.19388,42.17325 -135.07388,19.84515 -50.07812,-25.08508 -95.80526,-60.72341 -96.27532,-87.15855 z"
     class="arc-limb"
     id="path1" />
  <path
     d="m 538.5621,242.6915 c 40.50415,-4.88527 62.05842,42.63373 66.2127,99.62857 2.07713,43.31058 6.13909,58.34856 -9.43942,68.11911 -23.36778,14.65581 -38.6035,-30.0851 -53.14028,-60.49563 -7.26998,-41.52482 -14.01868,-87.71096 -3.633,-107.25205 z"
     class="arc-limb"
     id="path1-0"
     style="fill:#ffd8bd;stroke:#d9936d;stroke-width:1.30048"
     sodipodi:nodetypes="ccscc" />
  <path
     d="m 397.92712,152.74222 c 7.4981,-29.65265 82.18269,-34.2627 130.41359,-11.59589 31.98308,15.21982 58.00246,31.86068 51.23412,48.01387 -8.1933,15.87396 -45.0212,22.69484 -77.62985,9.05774 -30.78402,-12.42691 -96.82353,-28.71823 -104.01786,-45.47572 z"
     class="arc-muscle"
     id="path2"
     sodipodi:nodetypes="ccccc" />
  <path
     d="m 515.73472,229.96177 c -6.50829,14.20267 -55.84417,11.22843 -86.33879,-3.43202 -20.21165,-9.81556 -36.42767,-19.9167 -31.11824,-27.46438 6.23117,-7.30853 30.80159,-8.10111 51.50875,0.97225 19.57231,8.34354 62.11222,21.09203 65.94828,29.92415 z"
     class="arc-muscle"
     id="path2-0"
     sodipodi:nodetypes="ccccc"
     style="fill:#ff8668;stroke:#d15a3f;stroke-width:1.20311" />
  <path
     d="m 494.61239,130.66757 c 26,-14 53,-11 72,10"
     class="arc-fibers"
     id="path3" />
  <path
     d="m 500.61239,156.66757 c 26,-13 53,-9 73,12"
     class="arc-fibers"
     id="path4" />
  <path
     d="m 508.61239,183.66757 c 24,-11 49,-6 66,11"
     class="arc-fibers"
     id="path5" />
  <path
     style="fill:#f6f9ff;fill-opacity:1;stroke:#f6f9ff;stroke-width:15.9997;stroke-linecap:round;stroke-dasharray:none;stroke-opacity:1"
     d="m 553.21275,223.23517 c -16.38128,-21.38 -32.76256,-42.76 -45.21026,-60.74856 -12.44771,-17.98857 -20.96181,-32.58569 -29.47593,-47.18283"
     id="path16"
     inkscape:path-effect="#path-effect16"
     inkscape:original-d="m 553.21275,223.23517 c -16.38128,-21.38 -32.76256,-42.76 -49.14385,-64.14 -8.51412,-14.59713 -17.02823,-29.19425 -25.54234,-43.79139"
     inkscape:label="line5"
     transform="matrix(1.2151231,-1.0899979,1.0709507,1.2367344,-357.54983,537.83189)"
     sodipodi:nodetypes="ccc" />
  <ellipse
     cx="571.40912"
     cy="231.01837"
     class="arc-patella"
     id="circle5"
     rx="14.317572"
     ry="18.876945"
     style="fill:#f6f9ff;fill-opacity:1;stroke:#c7d2e7;stroke-opacity:0" />
  <g
     id="lowerLegGroup"
     transform="rotate(-1.3938917,-56.125277,1409.4989)">
    <path
       d="m 579.30122,279.75882 c 8.97001,44.45828 13.55628,84.35773 23.51686,123.91512"
       class="arc-bone tibia"
       id="path6" />
    <path
       d="m 600.79588,278.02079 c 2.68327,41.72873 15.16132,80.9592 20.69102,122.7193"
       class="arc-bone fibula"
       id="path7"
       style="stroke-width:15.553;stroke-dasharray:none" />
    <path
       d="m 612.76522,266.68714 c -4,14 -5,26 -6,39"
       class="arc-tendon"
       id="path9"
       style="stroke-width:12.4;stroke-dasharray:none" />
    <path
       d="m 569.83322,385.81215 c -8.49915,0.94677 -23.77413,-36.7832 -27.51917,-65.3086 -2.43834,-18.94651 -3.40571,-35.05101 1.73356,-34.18408 5.34308,1.64638 13.96056,19.51385 16.89532,38.52594 2.87722,17.87573 11.52369,54.54205 8.89029,60.96674 z"
       class="arc-muscle"
       id="path2-0-9"
       sodipodi:nodetypes="ccccc"
       style="fill:#ff8668;stroke:#d15a3f;stroke-width:0.820789"
       inkscape:label="calf"
       transform="rotate(1.3938917,-56.125277,1409.4989)" />
  </g>
  <g
     id="reflexHammer"
     class="arc-hammer"
     transform="translate(-15.222577,41.492721)">
    <rect
       x="646"
       y="232"
       width="14"
       height="54"
       rx="6"
       class="arc-hammer-handle"
       transform="rotate(20,653,259)"
       id="rect9" />
    <rect
       x="684.67401"
       y="-17.430567"
       width="36"
       height="18"
       rx="7"
       class="arc-hammer-head"
       transform="rotate(20)"
       id="rect10" />
  </g>
  <rect
     x="161.32838"
     y="-234.8761"
     width="112.38321"
     height="145.56482"
     rx="50"
     class="arc-cord"
     id="rect11"
     transform="rotate(87.314573)" />
  <path
     d="m 140.32111,208.78073 c 2.86017,-6.34041 5.4579,-14.92137 8.09266,-19.23387 2.63477,-4.3125 -7.55114,-14.08795 -4.82458,-16.96295 1.36328,-1.4375 7.58363,6.13128 12.96343,15.0086 5.37981,8.87733 10.76572,17.93434 12.15342,17.21559 2.77539,-1.4375 5.56445,-0.69454 8.3457,-0.69454 1.39062,0 0.53453,-8.79939 -0.32621,-17.4191 -0.86074,-8.6197 13.58475,-19.22635 14.95682,-18.5076 2.74414,1.4375 -7.2743,7.71364 -5.88783,11.37978 1.79741,4.75275 3.97736,3.72435 6.51837,8.03685 2.54102,4.3125 4.82064,10.11398 7.38477,15.09375 5.12258,9.94853 18.68168,18.66672 15.97583,29.52455 -1.58888,6.37575 -9.85727,11.23787 -16.41969,10.90716 -7.06582,-0.35608 -11.89826,-8.01142 -16.40902,-13.46171 -5.12692,-6.19478 -8.76228,-21.18238 -11.54353,-21.18238 -2.78125,0 -2.90064,17.24565 -7.60679,24.31462 -4.28814,6.44109 -10.03028,14.75173 -17.76589,14.94174 -7.47203,0.18353 -15.21364,-9.44771 -17.84841,-13.57271 -2.63476,-4.125 8.37776,-16.82389 12.24095,-25.38778 z"
     class="arc-grey"
     id="path11"
     sodipodi:nodetypes="asssssssssaaaasaasa" />
  <path
     id="sensoryImpulsePath"
     d="m 572.17432,276.82841 c -34.80735,-10.0963 -35.35723,-39.38378 -91.36456,-56.69863 -51.7728,-16.00573 -111.02127,-39.65107 -124.99065,-35.18112 0,0 -81.42724,101.15389 -95.08535,80.94664 -13.6581,-20.20725 20.52707,-181.888482 -70.4772,-89.51421"
     class="arc-path sensory"
     sodipodi:nodetypes="csssc" />
  <path
     id="relayImpulsePath"
     d="m 213.36717,238.3148 c -5.32497,-0.56265 -30.16024,-19.59573 -29.24929,-30.20467 0.91096,-10.60893 7.42705,-30.49342 2.76769,-29.64946"
     class="arc-path relay"
     sodipodi:nodetypes="csc" />
  <path
     id="motorImpulsePath"
     d="m 211.95561,239.19801 c 62.5715,51.77441 91.04216,12.09238 161.02076,-101.89788 38.64456,-5.93589 47.73718,-9.52556 72.94015,-6.55761"
     class="arc-path motor"
     sodipodi:nodetypes="ccc" />
  <circle
     id="reflexImpulseDot"
     cx="556.61237"
     cy="287.66757"
     r="6" />
  <polygon
     points="420,212 405,206 407,220 "
     class="arc-arrow"
     id="polygon11"
     transform="rotate(-29.426644,249.32703,235.67931)" />
  <polygon
     points="463,190 463,205 476,198 "
     class="arc-arrow"
     id="polygon12"
     transform="rotate(-33.045995,590.01845,118.41955)" />
  <polygon
     points="476,198 463,190 463,205 "
     class="arc-arrow"
     id="polygon12-2"
     transform="rotate(-33.045995,284.53806,549.73214)"
     style="fill:#1d5db9" />
  <polygon
     points="463,190 463,205 476,198 "
     class="arc-arrow"
     id="polygon12-2-3"
     transform="rotate(-33.045995,494.58872,202.89272)"
     style="fill:#1d5db9" />
  <text
     x="470.05371"
     y="109.33598"
     class="arc-caption"
     id="text12">Quadriceps</text>
  <text
     x="618.98016"
     y="239.86209"
     class="arc-caption small"
     id="text13">Patellar tendon</text>
  <text
     x="128.62421"
     y="107.39448"
     class="arc-caption"
     id="text15">Spinal Cord</text>
  <text
     x="36"
     y="34"
     class="arc-title"
     id="text16">Patellar (Knee-Jerk) Reflex</text>
</svg>
