<?xml version="1.0" encoding="UTF-8" standalone="no"?>
<svg
   id="reflexArcSvg"
   viewBox="0 0 760 420"
   aria-label="Simplified knee-jerk reflex arc diagram"
   version="1.1"
   sodipodi:docname="reflex-arc.svg"
   inkscape:version="1.4 (e7c3feb1, 2024-10-09)"
   xmlns:inkscape="http://www.inkscape.org/namespaces/inkscape"
   xmlns:sodipodi="http://sodipodi.sourceforge.net/DTD/sodipodi-0.dtd"
   xmlns="http://www.w3.org/2000/svg"
   xmlns:svg="http://www.w3.org/2000/svg">
  <defs
     id="defs16">
    <inkscape:path-effect
       effect="bspline"
       id="path-effect18"
       is_visible="true"
       lpeversion="1.3"
       weight="33.333333"
       steps="2"
       helper_size="0"
       apply_no_weight="true"
       apply_with_weight="true"
       only_selected="false"
       uniform="false" />
    <inkscape:path-effect
       effect="bspline"
       id="path-effect15"
       is_visible="true"
       lpeversion="1.3"
       weight="33.333333"
       steps="2"
       helper_size="0"
       apply_no_weight="true"
       apply_with_weight="true"
       only_selected="false"
       uniform="false" />
    <inkscape:path-effect
       effect="bspline"
       id="path-effect14"
       is_visible="true"
       lpeversion="1.3"
       weight="33.333333"
       steps="2"
       helper_size="0"
       apply_no_weight="true"
       apply_with_weight="true"
       only_selected="false"
       uniform="false" />
    <inkscape:path-effect
       effect="bspline"
       id="path-effect13"
       is_visible="true"
       lpeversion="1.3"
       weight="33.333333"
       steps="2"
       helper_size="0"
       apply_no_weight="true"
       apply_with_weight="true"
       only_selected="false"
       uniform="false" />
    <inkscape:path-effect
       effect="bspline"
       id="path-effect12"
       is_visible="true"
       lpeversion="1.3"
       weight="33.333333"
       steps="2"
       helper_size="0"
       apply_no_weight="true"
       apply_with_weight="true"
       only_selected="false"
       uniform="false" />
    <inkscape:path-effect
       effect="bspline"
       id="path-effect10"
       is_visible="true"
       lpeversion="1.3"
       weight="33.333333"
       steps="2"
       helper_size="0"
       apply_no_weight="true"
       apply_with_weight="true"
       only_selected="false"
       uniform="false" />
    <inkscape:path-effect
       effect="bspline"
       id="path-effect8"
       is_visible="true"
       lpeversion="1.3"
       weight="33.333333"
       steps="2"
       helper_size="0"
       apply_no_weight="true"
       apply_with_weight="true"
       only_selected="false"
       uniform="false" />
    <inkscape:path-effect
       effect="bspline"
       id="path-effect17"
       is_visible="true"
       lpeversion="1.3"
       weight="33.333333"
       steps="2"
       helper_size="0"
       apply_no_weight="true"
       apply_with_weight="true"
       only_selected="false"
       uniform="false" />
    <inkscape:path-effect
       effect="bspline"
       id="path-effect16"
       is_visible="true"
       lpeversion="1.3"
       weight="33.333333"
       steps="2"
       helper_size="0"
       apply_no_weight="true"
       apply_with_weight="true"
       only_selected="false"
       uniform="false" />
    <inkscape:path-effect
       effect="bspline"
       id="path-effect18-3"
       is_visible="true"
       lpeversion="1.3"
       weight="33.333333"
       steps="2"
       helper_size="0"
       apply_no_weight="true"
       apply_with_weight="true"
       only_selected="false"
       uniform="false" />
    <inkscape:path-effect
       effect="bspline"
       id="path-effect18-3-0"
       is_visible="true"
       lpeversion="1.3"
       weight="33.333333"
       steps="2"
       helper_size="0"
       apply_no_weight="true"
       apply_with_weight="true"
       only_selected="false"
       uniform="false" />
  </defs>
  <sodipodi:namedview
     id="namedview16"
     pagecolor="#ffffff"
     bordercolor="#000000"
     borderopacity="0.25"
     inkscape:showpageshadow="2"
     inkscape:pageopacity="0.0"
     inkscape:pagecheckerboard="0"
     inkscape:deskcolor="#d1d1d1"
     inkscape:zoom="0.91028715"
     inkscape:cx="504.23649"
     inkscape:cy="280.13138"
     inkscape:window-width="1296"
     inkscape:window-height="905"
     inkscape:window-x="221"
     inkscape:window-y="33"
     inkscape:window-maximized="0"
     inkscape:current-layer="reflexArcSvg" />
  <style
     id="style1">
    .arc-bg {
      fill: #f8fbff;
    }

    .arc-limb {
      fill: #ffd8bd;
      stroke: #d9936d;
      stroke-width: 2;
    }

    .arc-muscle {
      fill: #ff8668;
      stroke: #d15a3f;
      stroke-width: 2;
    }

    .arc-bone {
      stroke: #f6f9ff;
      stroke-width: 9;
      stroke-linecap: round;
      fill: none;
    }

    .arc-bone.femur {
      stroke-width: 11;
    }

    .arc-foot {
      fill: none;
      stroke: #f6f9ff;
      stroke-width: 8;
      stroke-linecap: round;
    }

    .arc-patella {
      fill: #fff0c8;
      stroke: #d89b2f;
      stroke-width: 2;
    }

    .arc-tendon {
      fill: none;
      stroke: #f4e6b2;
      stroke-width: 6;
      stroke-linecap: round;
    }

    .arc-tuberosity {
      fill: #f6f9ff;
      stroke: #8ca1cb;
      stroke-width: 1.4;
    }

    .arc-cord {
      fill: #fbe3f1;
      stroke: #c4709a;
      stroke-width: 2;
    }

    .arc-grey {
      fill: #f5bfdc;
      stroke: #bb628f;
      stroke-width: 1.4;
    }

    .arc-path {
      fill: none;
      stroke-width: 6;
      stroke-linecap: round;
      stroke-linejoin: round;
    }

    .arc-path.sensory {
      stroke: #2f75ff;
    }

    .arc-path.relay {
      stroke: #aa4ec7;
      stroke-width: 5;
    }

    .arc-path.motor {
      stroke: #00a891;
    }

    .arc-arrow {
      fill: #1d5db9;
    }

    .arc-caption {
      fill: #26456f;
      font-size: 16px;
      font-weight: 700;
      font-family: Outfit, &quot;Segoe UI&quot;, sans-serif;
    }

    .arc-caption.small {
      font-size: 13px;
    }

    .arc-title {
      fill: #1f3660;
      font-size: 22px;
      font-weight: 800;
      font-family: Outfit, &quot;Segoe UI&quot;, sans-serif;
    }

    .arc-hammer-handle {
      fill: #85633f;
    }

    .arc-hammer-head {
      fill: #c7d2e7;
      stroke: #7a8cab;
      stroke-width: 1.6;
    }

    #reflexImpulseDot {
      fill: #ffd24a;
      stroke: #ffffff;
      stroke-width: 2;
      opacity: 0;
      filter: drop-shadow(0 0 9px rgba(255, 190, 60, 0.95));
    }
  </style>
  <rect
     x="0"
     y="0"
     width="760"
     height="420"
     class="arc-bg"
     id="rect1"
     style="fill:#f8fbff;fill-opacity:0.02325581" />
  <g
     id="lowerLegGroup"
     transform="rotate(-1.3938917,-56.125277,1409.4989)">
    <path
       style="fill:#aa6400;fill-opacity:1;stroke-width:1.3;stroke-linecap:round;stroke-dashoffset:0.36"
       d="m 692.59305,411.96286 c -1.58789,-3.27197 -4.76366,-9.81591 -5.77902,-13.2163 -1.01536,-3.4004 0.12964,-3.65723 2.0009,-3.6727 1.87126,-0.0155 4.46866,0.21041 6.686,1.85056 2.21734,1.64015 4.05448,4.69437 5.34298,7.73543 1.2885,3.04105 2.02823,6.06864 0.82624,7.82892 -1.20199,1.76027 -4.34557,2.25316 -5.9174,2.49961 -1.57182,0.24645 -1.57181,0.24645 -3.1597,-3.02552 z"
       id="path15"
       inkscape:path-effect="#path-effect15"
       inkscape:original-d="m 694.18094,415.23483 c -3.17578,-6.54394 -6.35155,-13.08788 -9.52733,-19.63183 1.14506,-0.25683 2.29006,-0.51367 3.4351,-0.7705 2.59748,0.22589 5.19488,0.45177 7.79231,0.67765 1.83725,3.05442 3.67439,6.10864 5.51163,9.16305 0.73976,3.0277 1.47949,6.05529 2.21923,9.08293 -3.14372,0.49291 -6.2873,0.9858 -9.43095,1.4787 z"
       sodipodi:nodetypes="scccccss" />
    <path
       d="m 605.09632,436.52933 c -5.44723,-19.19978 20.12802,-32.01012 52.23454,-36.95421 1.52932,-0.2024 2.99538,-0.40282 4.40172,-0.599 1.40635,-0.19618 2.75298,-0.38812 4.04343,-0.57358 1.29045,-0.18546 2.52472,-0.36445 3.70636,-0.5347 5.25961,-0.75785 7.38069,-1.02622 9.30904,-1.2361 0.89765,-0.0977 1.75329,-0.17994 2.57045,-0.24447 0.81715,-0.0645 1.59583,-0.11135 2.33956,-0.13823 0.74373,-0.0269 1.45252,-0.0338 2.12991,-0.0185 0.51594,0.0116 2.81405,-1.93953 6.49573,-0.74734 0.52082,0.16864 -0.13074,1.9109 0.35205,2.13966 0.48278,0.22876 -4.89293,3.55749 -4.4411,3.85084 0.45184,0.29335 5.92313,-4.24278 7.15917,-2.08624 1.19911,2.0921 -5.66795,4.5338 -5.25679,4.96981 0.61674,0.65402 6.73805,-4.25142 7.97252,-1.82101 1.08887,2.14375 -5.56738,4.09047 -5.44491,4.73125 0.12248,0.64078 5.38894,-2.81039 6.20043,-0.88671 0.86424,2.04874 -4.99572,3.44355 -5.28474,4.0706 -0.28903,0.62706 4.37697,-1.14098 4.92962,0.4126 0.41539,1.16776 -2.05936,1.96767 -2.67711,2.58052 -0.61776,0.61286 -1.38279,1.49544 -2.13387,2.10102 -0.34994,0.28215 -2.23539,0.79105 -5.3948,1.86342 -1.06385,0.36109 -36.36643,8.16739 -37.39334,8.75041 -40.52862,23.0098 -43.32903,11.2097 -45.81788,10.36999 z"
       class="arc-limb"
       id="path1-0-7"
       style="fill:#ffd8bd;stroke:#d9936d;stroke-width:1.3;stroke-dasharray:none"
       sodipodi:nodetypes="ccssssssssssasasasasssscc" />
    <path
       style="fill:#aa6400;fill-opacity:1;stroke-width:1.3;stroke-linecap:round;stroke-dashoffset:0.36"
       d="m 623.08007,426.51028 c 11.90863,-4.73897 34.83446,-9.60486 47.15049,-14.63225 12.31603,-5.02739 14.02123,-10.21578 7.22628,-10.19891 -6.79495,0.0169 -22.08931,5.23902 -35.50785,7.8473 -13.41855,2.60827 -24.96016,2.60241 -24.84076,3.5125 0.11941,0.9101 11.89993,2.73615 14.44147,7.36661 2.54154,4.63046 -4.15584,12.06508 -9.67802,15.93506 -5.52219,3.86997 -9.86861,4.17495 -12.53852,3.99876 -2.66992,-0.17618 -3.66301,-0.83352 -2.90673,-5.54162 0.75627,-4.7081 3.26179,-13.46641 4.04724,-13.19563 0.78545,0.27078 -0.14927,9.57079 -0.1712,11.91493 -0.0219,2.34415 0.86898,-2.26778 12.7776,-7.00675 z"
       id="path13"
       inkscape:path-effect="#path-effect13"
       inkscape:original-d="m 612.06235,426.63731 c 22.92635,-4.866 45.85218,-9.73189 68.77894,-14.59797 1.70531,-5.1887 3.4105,-10.37709 5.1158,-15.56579 -15.2952,5.22244 -30.58956,10.44459 -45.88469,15.66701 -11.54196,-0.006 -23.08357,-0.0118 -34.62536,-0.0176 11.7806,1.82606 23.56112,3.65211 35.34178,5.47818 -6.69758,7.43485 -13.39496,14.86947 -20.09264,22.30443 -4.34669,0.30499 -8.69311,0.60997 -13.0398,0.91496 -0.99314,-0.65736 -1.98623,-1.3147 -2.97935,-1.97205 2.50567,-8.75885 5.01119,-17.51716 7.51686,-26.276 -0.93477,9.3004 -1.86949,18.60041 -2.80424,27.90064 0.8909,-4.61194 1.7818,-9.22387 2.6727,-13.83581 z"
       sodipodi:nodetypes="cccccccccccc"
       transform="matrix(1.0412223,0.00100305,0.00100305,1.0000244,-28.67602,-0.69776787)" />
    <path
       style="fill:#aa6400;fill-opacity:1;stroke-width:1.3;stroke-linecap:round;stroke-dashoffset:0.36"
       d="m 608.58884,424.97028 c 9.15932,0.46614 27.47795,1.39844 45.6726,0.91064 18.19465,-0.4878 36.26532,-2.39568 44.53238,-2.43768 8.26706,-0.042 6.61778,1.91571 -4.29116,3.78251 -10.90894,1.86681 -34.53196,4.23385 -51.09081,5.33425 -16.55886,1.1004 -27.6676,1.09594 -38.77657,1.09147 -1.73525,-3.04913 -3.4705,-6.09826 -4.33813,-7.62282 -0.86762,-1.52456 -0.86762,-1.52452 8.29169,-1.05837 z"
       id="path14"
       inkscape:path-effect="#path-effect14"
       inkscape:original-d="m 599.42953,424.50413 c 18.31863,0.93229 36.63726,1.86459 54.95588,2.79688 18.07068,-1.90789 36.14135,-3.81577 54.21203,-5.72366 -1.53656,1.8239 -3.18584,3.7816 -4.60969,5.47171 -20.39403,2.0435 -44.01705,4.41054 -66.02557,6.61581 -11.10919,-0.004 -33.3269,-0.0134 -33.3269,-0.0134 0,0 -3.4705,-6.09826 -5.20575,-9.14738 z"
       transform="rotate(-13.270626,654.08289,429.12948)"
       sodipodi:nodetypes="cccaccc" />
    <path
       style="fill:#aa6400;fill-opacity:1;stroke-width:1.3;stroke-linecap:round;stroke-dashoffset:0.36"
       d="m 642.66303,421.52202 c 0.42359,3.71022 -0.27017,6.87938 1.09276,7.88891 1.36294,1.00952 4.78245,-0.14055 6.10875,-3.96243 1.32629,-3.82188 0.55933,-10.31527 -0.87019,-14.9236 -1.42952,-4.60833 -3.52151,-7.33134 -6.12327,-8.11407 -2.60176,-0.78272 -5.71314,0.37485 -6.417,1.84799 -0.70387,1.47314 0.99975,3.26174 2.62208,6.28175 1.62234,3.02001 3.16327,7.27122 3.58687,10.98145 z"
       id="path16"
       inkscape:path-effect="#path-effect18"
       inkscape:original-d="m 643.78039,422.06308 c -0.69377,3.16916 -1.38754,6.33832 -2.0813,9.50749 3.41964,-1.15012 6.83915,-2.3002 10.25873,-3.45029 -0.76699,-6.49366 -1.53395,-12.98705 -2.30092,-19.48058 -2.09207,-2.72313 -4.18406,-5.44614 -6.27609,-8.16921 -3.11149,1.15763 -6.22287,2.31519 -9.3343,3.47279 1.7037,1.78868 3.40732,3.57728 5.11099,5.36592 1.541,4.25138 3.08193,8.50259 4.62289,12.75388 z" />
    <path
       style="fill:#aa6400;fill-opacity:1;stroke-width:1.3;stroke-linecap:round;stroke-dashoffset:0.36"
       d="m 642.66303,421.52202 c 0.42359,3.71022 -0.27017,6.87938 1.09276,7.88891 1.36294,1.00952 4.78245,-0.14055 6.10875,-3.96243 1.32629,-3.82188 0.55933,-10.31527 -0.87019,-14.9236 -1.42952,-4.60833 -3.52151,-7.33134 -6.12327,-8.11407 -2.60176,-0.78272 -5.71314,0.37485 -6.417,1.84799 -0.70387,1.47314 0.99975,3.26174 2.62208,6.28175 1.62234,3.02001 3.16327,7.27122 3.58687,10.98145 z"
       id="path16-8"
       inkscape:path-effect="#path-effect18-3"
       inkscape:original-d="m 643.78039,422.06308 c -0.69377,3.16916 -1.38754,6.33832 -2.0813,9.50749 3.41964,-1.15012 6.83915,-2.3002 10.25873,-3.45029 -0.76699,-6.49366 -1.53395,-12.98705 -2.30092,-19.48058 -2.09207,-2.72313 -4.18406,-5.44614 -6.27609,-8.16921 -3.11149,1.15763 -6.22287,2.31519 -9.3343,3.47279 1.7037,1.78868 3.40732,3.57728 5.11099,5.36592 1.541,4.25138 3.08193,8.50259 4.62289,12.75388 z"
       transform="translate(17.033737,-5.3711395)" />
    <path
       style="fill:#aa6400;fill-opacity:1;stroke-width:1.3;stroke-linecap:round;stroke-dashoffset:0.36"
       d="m 642.66303,421.52202 c 0.42359,3.71022 -0.27017,6.87938 1.09276,7.88891 1.36294,1.00952 4.78245,-0.14055 6.10875,-3.96243 1.32629,-3.82188 0.55933,-10.31527 -0.87019,-14.9236 -1.42952,-4.60833 -3.52151,-7.33134 -6.12327,-8.11407 -2.60176,-0.78272 -5.71314,0.37485 -6.417,1.84799 -0.70387,1.47314 0.99975,3.26174 2.62208,6.28175 1.62234,3.02001 3.16327,7.27122 3.58687,10.98145 z"
       id="path16-8-2"
       inkscape:path-effect="#path-effect18-3-0"
       inkscape:original-d="m 643.78039,422.06308 c -0.69377,3.16916 -1.38754,6.33832 -2.0813,9.50749 3.41964,-1.15012 6.83915,-2.3002 10.25873,-3.45029 -0.76699,-6.49366 -1.53395,-12.98705 -2.30092,-19.48058 -2.09207,-2.72313 -4.18406,-5.44614 -6.27609,-8.16921 -3.11149,1.15763 -6.22287,2.31519 -9.3343,3.47279 1.7037,1.78868 3.40732,3.57728 5.11099,5.36592 1.541,4.25138 3.08193,8.50259 4.62289,12.75388 z"
       transform="translate(35.506177,-8.5109507)" />
    <path
       d="m 538.5621,242.6915 c 20.25207,-2.44264 22.78051,1.1228 33.75138,19.51624 5.48543,9.19672 9.65108,21.78148 12.74841,35.33879 3.09734,13.55731 7.90533,24.5142 9.11754,37.60113 1.03106,11.13139 3.6585,25.90933 3.81874,38.95587 0.14915,12.14345 5.12646,31.45038 -2.66279,36.33565 -11.68388,7.32791 -12.82633,2.51387 -21.37333,-10.6407 -8.547,-13.15457 -25.9326,-31.03326 -31.76695,-49.85493 -10.5912,-34.1673 -14.01868,-87.71096 -3.633,-107.25205 z"
       class="arc-limb"
       id="path1-0"
       style="fill:#ffd8bd;stroke:#d9936d;stroke-width:1.30048"
       sodipodi:nodetypes="csssassac"
       transform="rotate(1.3938917,-56.125277,1409.4989)" />
    <path
       d="m 579.30122,279.75882 c 8.97001,44.45828 13.55628,84.35773 23.51686,123.91512"
       class="arc-bone tibia"
       id="path6" />
    <path
       d="m 600.79588,278.02079 c 2.68327,41.72873 5.92608,93.0614 11.45578,134.8215"
       class="arc-bone fibula"
       id="path7"
       style="stroke-width:15.553;stroke-dasharray:none"
       sodipodi:nodetypes="cc" />
    <path
       d="m 601.56966,266.41472 c -4,14 -0.69718,15.77974 -1.69718,28.77974"
       class="arc-tendon"
       id="path9"
       style="stroke-width:12.4;stroke-dasharray:none"
       sodipodi:nodetypes="cc" />
    <path
       d="m 569.83322,385.81215 c -8.49915,0.94677 -23.77413,-36.7832 -27.51917,-65.3086 -2.43834,-18.94651 -3.40571,-35.05101 1.73356,-34.18408 5.34308,1.64638 13.96056,19.51385 16.89532,38.52594 2.87722,17.87573 11.52369,54.54205 8.89029,60.96674 z"
       class="arc-muscle"
       id="path2-0-9"
       sodipodi:nodetypes="ccccc"
       style="fill:#ff8668;stroke:#d15a3f;stroke-width:0.820789"
       inkscape:label="calf"
       transform="rotate(1.3938917,-56.125277,1409.4989)" />
  </g>
  <g
     id="reflexHammer"
     class="arc-hammer"
     transform="translate(-15.222577,41.492721)">
    <g
       id="reflexHammerVisual"
       transform="translate(759,0) scale(-1 1) translate(-759,0)">
      <rect
         x="752.02448"
         y="2.2639804"
         width="14"
         height="54"
         rx="6"
         class="arc-hammer-handle"
         transform="rotate(20)"
         id="rect9" />
      <rect
         x="741.49603"
         y="-8.2078218"
         width="36"
         height="18"
         rx="7"
         class="arc-hammer-head"
         transform="rotate(20)"
         id="rect10" />
    </g>
  </g>
  <rect
     x="156.52554"
     y="-170.64897"
     width="112.38321"
     height="145.56482"
     rx="50"
     class="arc-cord"
     id="rect11"
     transform="rotate(87.314573)" />
  <path
     d="m 75.939491,206.99235 c 2.86017,-6.34041 5.4579,-14.92137 8.09266,-19.23387 2.63477,-4.3125 -7.55114,-14.08795 -4.82458,-16.96295 1.36328,-1.4375 7.58363,6.13128 12.96343,15.0086 5.37981,8.87733 10.765719,17.93434 12.153419,17.21559 2.77539,-1.4375 5.56445,-0.69454 8.3457,-0.69454 1.39062,0 0.53453,-8.79939 -0.32621,-17.4191 -0.86074,-8.6197 13.58475,-19.22635 14.95682,-18.5076 2.74414,1.4375 -7.2743,7.71364 -5.88783,11.37978 1.79741,4.75275 3.97736,3.72435 6.51837,8.03685 2.54102,4.3125 4.82064,10.11398 7.38477,15.09375 5.12258,9.94853 18.68168,18.66672 15.97583,29.52455 -1.58888,6.37575 -9.85727,11.23787 -16.41969,10.90716 -7.06582,-0.35608 -11.89826,-8.01142 -16.40902,-13.46171 -5.12692,-6.19478 -8.76228,-21.18238 -11.54353,-21.18238 -2.78125,0 -2.90064,17.24565 -7.606789,24.31462 -4.28814,6.44109 -10.03028,14.75173 -17.76589,14.94174 -7.47203,0.18353 -15.21364,-9.44771 -17.84841,-13.57271 -2.63476,-4.125 8.37776,-16.82389 12.24095,-25.38778 z"
     class="arc-grey"
     id="path11"
     sodipodi:nodetypes="asssssssssaaaasaasa" />
  <path
     id="relayImpulsePath"
     d="m 120.52173,176.26564 c 5.30788,0.70591 5.15356,22.91992 3.95712,33.50047 -1.19645,10.58054 16.2219,27.76351 20.90231,27.04539"
     class="arc-path relay"
     sodipodi:nodetypes="csc" />
  <circle
     id="reflexImpulseDot"
     cx="556.61237"
     cy="287.66757"
     r="6" />
  <polygon
     points="476,198 463,190 463,205 "
     class="arc-arrow"
     id="polygon12-2"
     transform="rotate(19.885281,356.86684,-560.93252)"
     style="fill:#1d5db9" />
  <polygon
     points="476,198 463,190 463,205 "
     class="arc-arrow"
     id="polygon12-2-3"
     transform="rotate(-60.252582,413.21172,316.99114)"
     style="fill:#1d5db9" />
  <text
     x="585.47748"
     y="249.75548"
     class="arc-caption small"
     id="text13">Patellar tendon</text>
  <text
     x="64.242584"
     y="105.6061"
     class="arc-caption"
     id="text15">Spinal Cord</text>
  <text
     x="36"
     y="34"
     class="arc-title"
     id="text16">Patellar (Knee-Jerk) Reflex</text>
  <polygon
     points="405,206 407,220 420,212 "
     class="arc-arrow"
     id="polygon11"
     transform="rotate(-34.45078,256.75532,257.69778)"
     style="fill:#006b5d;fill-opacity:0.99767441" />
  <g
     id="g12"
     inkscape:label="upperleg">
    <path
       d="m 346.01669,156.89839 c 63.29463,-46.77767 118.25742,-39.44786 177.24947,-2.44654 31.72644,22.22977 71.23789,45.53719 54.09973,69.75994 -25.70724,36.33413 -91.19388,42.17325 -135.07388,19.84515 -50.07812,-25.08508 -95.80526,-60.72341 -96.27532,-87.15855 z"
       class="arc-limb"
       id="path1"
       sodipodi:nodetypes="ccscc" />
    <path
       d="m 515.73472,229.96177 c -6.50829,14.20267 -55.84417,11.22843 -86.33879,-3.43202 -20.21165,-9.81556 -36.42767,-19.9167 -31.11824,-27.46438 6.23117,-7.30853 30.80159,-8.10111 51.50875,0.97225 19.57231,8.34354 62.11222,21.09203 65.94828,29.92415 z"
       class="arc-muscle"
       id="path2-0"
       sodipodi:nodetypes="ccccc"
       style="fill:#ff8668;stroke:#d15a3f;stroke-width:1.20311" />
    <ellipse
       cx="571.40912"
       cy="231.01837"
       class="arc-patella"
       id="circle5"
       rx="11.857836"
       ry="18.876945"
       style="fill:#f6f9ff;fill-opacity:1;stroke:#c7d2e7;stroke-opacity:0" />
    <text
       x="470.05371"
       y="109.33598"
       class="arc-caption"
       id="text12">Quadriceps</text>
    <path
       style="display:inline;opacity:1;fill:#f6f9ff;fill-opacity:1;stroke:none;stroke-width:1.8;stroke-linecap:round;stroke-dasharray:5.4, 5.4;stroke-dashoffset:0.36;stroke-opacity:1"
       d="M 526.41011,200.19189 C 493.07106,189.78822 433.80165,169.6114 401.80243,157.3161 369.8032,145.02081 365.07435,140.60722 359.24192,143.28705 c -5.83243,2.67983 -12.76808,12.45278 -14.73844,18.36398 -1.97036,5.9112 1.02458,7.96037 5.3595,8.74853 4.33492,0.78815 10.00954,0.31526 29.31971,4.01968 19.31018,3.70442 52.25449,11.58583 80.7072,20.17684 28.45271,8.591 52.4122,17.89106 66.12617,24.59044 13.71397,6.69938 17.18179,10.79771 20.72853,12.92574 3.54675,2.12802 7.1722,2.28565 8.98496,0.55167 1.81276,-1.73398 1.81276,-5.35943 2.83738,-8.98499 1.02463,-3.62556 3.0738,-7.25101 5.9112,-9.22141 2.8374,-1.97039 6.46285,-2.28565 4.5712,-2.75855 -1.89165,-0.4729 -9.30018,-1.10341 -42.63922,-11.50709 z"
       id="path12"
       inkscape:path-effect="#path-effect12"
       inkscape:original-d="M 552.34047,209.96504 C 493.07106,189.78822 433.80165,169.6114 374.53224,149.43458 c -4.72904,-4.41377 -9.45789,-8.82736 -14.18683,-13.24104 -6.93592,9.77334 -13.87156,19.5463 -20.80735,29.31944 2.99506,2.04925 5.99,4.09842 8.98499,6.14763 5.67485,-0.4729 11.34947,-0.94579 17.0242,-1.41868 32.94562,7.88172 65.88993,15.76314 98.83489,23.64471 23.96046,9.30044 47.91995,18.6005 71.87993,27.90076 3.46796,4.0985 6.93578,8.19683 10.40367,12.29525 3.6256,0.15763 7.25105,0.31526 10.87657,0.47289 0,-3.62559 0,-7.25104 0,-10.87656 2.04925,-3.6256 4.09842,-7.25105 6.14762,-10.87657 3.6256,-0.31527 7.25105,-0.63053 10.87657,-0.94579 -7.40882,-0.63054 -14.81735,-1.26105 -22.22603,-1.89158 z"
       inkscape:label="path5" />
  </g>
  <path
     id="sensoryImpulsePath"
     d="m 571.92651,276.5805 c -40.62981,-10.05742 -50.52562,-22.04618 -115.90168,-39.29434 -60.4332,-15.94409 -58.83937,-27.199 -90.48062,-29.56916 -26.16716,-1.96011 -39.4998,1.4795 -77.63506,13.03304 -38.13527,11.55355 -71.5486,55.00417 -79.52,44.93946 -15.9428,-20.12942 23.96078,-181.187974 -82.2664,-89.16946"
     class="arc-path sensory"
     sodipodi:nodetypes="csassc" />
  <polygon
     points="463,205 476,198 463,190 "
     class="arc-arrow"
     id="polygon12"
     transform="rotate(-33.045995,599.64649,134.39301)" />
  <path
     id="motorImpulsePath"
     d="m 144.3912,238.93849 c 80.53585,51.466 123.63535,-9.95368 207.25,-101.29088 21.18159,-23.1379 61.44258,-9.46882 93.88135,-6.51855"
     class="arc-path motor"
     sodipodi:nodetypes="csc" />
  <g
     id="g13">
    <text
       x="223.84169"
       y="154.97261"
       class="arc-caption"
       id="text12-6"
       style="font-weight:700;font-size:16px;font-family:Outfit, 'Segoe UI', sans-serif;fill:#26456f"><tspan
         sodipodi:role="line"
         id="tspan1"
         x="223.84169"
         y="154.97261">Nerve</tspan><tspan
         sodipodi:role="line"
         id="tspan2"
         x="223.84169"
         y="174.97261">fibre</tspan></text>
    <path
       style="fill:#f6f9ff;fill-opacity:1;stroke:#26456f;stroke-width:2;stroke-linecap:round;stroke-dasharray:none;stroke-opacity:1"
       d="m 270.62826,219.64033 c -0.37045,-1.89933 -0.74089,-3.79863 -10.87329,-3.47178 -10.1324,0.32685 -30.02603,2.87983 -39.82696,5.01288 -9.80092,2.13306 -9.50879,3.84608 -9.31415,5.13977 0.19464,1.29368 0.29178,2.16801 0.38893,3.04233"
       id="path8"
       inkscape:path-effect="#path-effect8"
       inkscape:original-d="m 270.62826,219.64033 c -0.37045,-1.89933 -0.74089,-3.79863 -1.11135,-5.698 -19.89434,2.55307 -39.78797,5.10605 -59.68196,7.65907 0.29214,1.71309 0.58427,3.42611 0.8764,5.13917 0.0971,0.87432 0.19429,1.74864 0.29144,2.62296"
       sodipodi:nodetypes="ccccc"
       transform="rotate(-23.410705,276.61594,235.03163)" />
    <rect
       style="opacity:0.82684;fill:#fffddf;fill-opacity:1;stroke:#26456f;stroke-width:0;stroke-linecap:round;stroke-dasharray:none;stroke-opacity:1"
       id="rect8"
       width="51.762108"
       height="22.466305"
       x="56.4772"
       y="325.80127"
       rx="4.3357658"
       ry="4.2341728"
       transform="matrix(0.87705473,-0.48039046,0.51561535,0.85682017,0,0)" />
    <path
       style="opacity:1;fill:none;fill-opacity:0.493023;stroke:#26456f;stroke-width:1.8;stroke-linecap:round;stroke-dasharray:5.4, 5.4;stroke-dashoffset:0.36;stroke-opacity:1"
       d="m 236.81819,230.45591 c 0,-16.25916 0,-32.51832 0,-48.77748"
       id="path10"
       inkscape:path-effect="#path-effect10"
       inkscape:original-d="m 236.81819,230.45591 c 0,-16.25916 0,-32.51832 0,-48.77748"
       transform="matrix(1,0,0,1.0407989,0,-7.3974814)" />
  </g>
  <path
     d="m 397.92712,152.74222 c 7.4981,-29.65265 61.05091,-17.67638 109.28181,4.99043 31.98308,15.21982 46.03382,30.25622 59.4034,45.11019 -17.93746,-1.66552 -32.0587,9.0122 -64.66735,-4.6249 -30.78402,-12.42691 -96.82353,-28.71823 -104.01786,-45.47572 z"
     class="arc-muscle"
     id="path2"
     sodipodi:nodetypes="ccccc"
     inkscape:label="quad" />
  <path
     d="m 559.08882,198.25195 c 6.90067,7.48229 14.21674,13.29526 13.1145,17.84284"
     class="arc-tendon"
     id="path9-0"
     style="fill:none;stroke:#f4e6b2;stroke-width:9.3062;stroke-linecap:round;stroke-dasharray:none"
     sodipodi:nodetypes="cc" />
</svg>
