<?xml version="1.0" encoding="UTF-8" standalone="no"?>
<svg
   id="reflexArcSvg"
   viewBox="0 0 760 420"
   aria-label="Simplified knee-jerk reflex arc diagram"
   version="1.1"
   sodipodi:docname="reflex-arc.svg"
   inkscape:version="1.4 (e7c3feb1, 2024-10-09)"
   xmlns:inkscape="http://www.inkscape.org/namespaces/inkscape"
   xmlns:sodipodi="http://sodipodi.sourceforge.net/DTD/sodipodi-0.dtd"
   xmlns="http://www.w3.org/2000/svg"
   xmlns:svg="http://www.w3.org/2000/svg">
  <defs
     id="defs16">
    <inkscape:path-effect
       effect="bspline"
       id="path-effect12"
       is_visible="true"
       lpeversion="1.3"
       weight="33.333333"
       steps="2"
       helper_size="0"
       apply_no_weight="true"
       apply_with_weight="true"
       only_selected="false"
       uniform="false" />
    <inkscape:path-effect
       effect="bspline"
       id="path-effect10"
       is_visible="true"
       lpeversion="1.3"
       weight="33.333333"
       steps="2"
       helper_size="0"
       apply_no_weight="true"
       apply_with_weight="true"
       only_selected="false"
       uniform="false" />
    <inkscape:path-effect
       effect="bspline"
       id="path-effect8"
       is_visible="true"
       lpeversion="1.3"
       weight="33.333333"
       steps="2"
       helper_size="0"
       apply_no_weight="true"
       apply_with_weight="true"
       only_selected="false"
       uniform="false" />
    <inkscape:path-effect
       effect="bspline"
       id="path-effect17"
       is_visible="true"
       lpeversion="1.3"
       weight="33.333333"
       steps="2"
       helper_size="0"
       apply_no_weight="true"
       apply_with_weight="true"
       only_selected="false"
       uniform="false" />
    <inkscape:path-effect
       effect="bspline"
       id="path-effect16"
       is_visible="true"
       lpeversion="1.3"
       weight="33.333333"
       steps="2"
       helper_size="0"
       apply_no_weight="true"
       apply_with_weight="true"
       only_selected="false"
       uniform="false" />
  </defs>
  <sodipodi:namedview
     id="namedview16"
     pagecolor="#ffffff"
     bordercolor="#000000"
     borderopacity="0.25"
     inkscape:showpageshadow="2"
     inkscape:pageopacity="0.0"
     inkscape:pagecheckerboard="0"
     inkscape:deskcolor="#d1d1d1"
     inkscape:zoom="0.80222159"
     inkscape:cx="458.72612"
     inkscape:cy="229.36306"
     inkscape:window-width="1376"
     inkscape:window-height="905"
     inkscape:window-x="141"
     inkscape:window-y="33"
     inkscape:window-maximized="0"
     inkscape:current-layer="reflexArcSvg" />
  <style
     id="style1">
    .arc-bg {
      fill: #f8fbff;
    }

    .arc-limb {
      fill: #ffd8bd;
      stroke: #d9936d;
      stroke-width: 2;
    }

    .arc-muscle {
      fill: #ff8668;
      stroke: #d15a3f;
      stroke-width: 2;
    }

    .arc-fibers {
      fill: none;
      stroke: rgba(162, 58, 45, 0.45);
      stroke-width: 2;
      stroke-linecap: round;
    }

    .arc-bone {
      stroke: #f6f9ff;
      stroke-width: 9;
      stroke-linecap: round;
      fill: none;
    }

    .arc-bone.femur {
      stroke-width: 11;
    }

    .arc-foot {
      fill: none;
      stroke: #f6f9ff;
      stroke-width: 8;
      stroke-linecap: round;
    }

    .arc-patella {
      fill: #fff0c8;
      stroke: #d89b2f;
      stroke-width: 2;
    }

    .arc-tendon {
      fill: none;
      stroke: #f4e6b2;
      stroke-width: 6;
      stroke-linecap: round;
    }

    .arc-tuberosity {
      fill: #f6f9ff;
      stroke: #8ca1cb;
      stroke-width: 1.4;
    }

    .arc-cord {
      fill: #fbe3f1;
      stroke: #c4709a;
      stroke-width: 2;
    }

    .arc-grey {
      fill: #f5bfdc;
      stroke: #bb628f;
      stroke-width: 1.4;
    }

    .arc-path {
      fill: none;
      stroke-width: 6;
      stroke-linecap: round;
      stroke-linejoin: round;
    }

    .arc-path.sensory {
      stroke: #2f75ff;
    }

    .arc-path.relay {
      stroke: #aa4ec7;
      stroke-width: 5;
    }

    .arc-path.motor {
      stroke: #00a891;
    }

    .arc-arrow {
      fill: #1d5db9;
    }

    .arc-caption {
      fill: #26456f;
      font-size: 16px;
      font-weight: 700;
      font-family: Outfit, &quot;Segoe UI&quot;, sans-serif;
    }

    .arc-caption.small {
      font-size: 13px;
    }

    .arc-title {
      fill: #1f3660;
      font-size: 22px;
      font-weight: 800;
      font-family: Outfit, &quot;Segoe UI&quot;, sans-serif;
    }

    .arc-hammer-handle {
      fill: #85633f;
    }

    .arc-hammer-head {
      fill: #c7d2e7;
      stroke: #7a8cab;
      stroke-width: 1.6;
    }

    #reflexImpulseDot {
      fill: #ffd24a;
      stroke: #ffffff;
      stroke-width: 2;
      opacity: 0;
      filter: drop-shadow(0 0 9px rgba(255, 190, 60, 0.95));
    }
  </style>
  <rect
     x="0"
     y="0"
     width="760"
     height="420"
     class="arc-bg"
     id="rect1"
     style="fill:#f8fbff;fill-opacity:0.02325581" />
  <path
     d="m 538.5621,242.6915 c 40.50415,-4.88527 62.05842,42.63373 66.2127,99.62857 2.07713,43.31058 6.13909,58.34856 -9.43942,68.11911 -23.36778,14.65581 -38.6035,-30.0851 -53.14028,-60.49563 -7.26998,-41.52482 -14.01868,-87.71096 -3.633,-107.25205 z"
     class="arc-limb"
     id="path1-0"
     style="fill:#ffd8bd;stroke:#d9936d;stroke-width:1.30048"
     sodipodi:nodetypes="ccscc" />
  <g
     id="lowerLegGroup"
     transform="rotate(-1.3938917,-56.125277,1409.4989)">
    <path
       d="m 579.30122,279.75882 c 8.97001,44.45828 13.55628,84.35773 23.51686,123.91512"
       class="arc-bone tibia"
       id="path6" />
    <path
       d="m 600.79588,278.02079 c 2.68327,41.72873 15.16132,80.9592 20.69102,122.7193"
       class="arc-bone fibula"
       id="path7"
       style="stroke-width:15.553;stroke-dasharray:none" />
    <path
       d="m 601.56966,266.41472 c -4,14 6.19556,26.27242 5.19556,39.27242"
       class="arc-tendon"
       id="path9"
       style="stroke-width:12.4;stroke-dasharray:none"
       sodipodi:nodetypes="cc" />
    <path
       d="m 569.83322,385.81215 c -8.49915,0.94677 -23.77413,-36.7832 -27.51917,-65.3086 -2.43834,-18.94651 -3.40571,-35.05101 1.73356,-34.18408 5.34308,1.64638 13.96056,19.51385 16.89532,38.52594 2.87722,17.87573 11.52369,54.54205 8.89029,60.96674 z"
       class="arc-muscle"
       id="path2-0-9"
       sodipodi:nodetypes="ccccc"
       style="fill:#ff8668;stroke:#d15a3f;stroke-width:0.820789"
       inkscape:label="calf"
       transform="rotate(1.3938917,-56.125277,1409.4989)" />
  </g>
  <g
     id="reflexHammer"
     class="arc-hammer"
     transform="translate(-15.222577,41.492721)">
    <rect
       x="646"
       y="232"
       width="14"
       height="54"
       rx="6"
       class="arc-hammer-handle"
       transform="rotate(20,653,259)"
       id="rect9" />
    <rect
       x="684.67401"
       y="-17.430567"
       width="36"
       height="18"
       rx="7"
       class="arc-hammer-head"
       transform="rotate(20)"
       id="rect10" />
  </g>
  <rect
     x="156.52554"
     y="-170.64897"
     width="112.38321"
     height="145.56482"
     rx="50"
     class="arc-cord"
     id="rect11"
     transform="rotate(87.314573)" />
  <path
     d="m 75.939491,206.99235 c 2.86017,-6.34041 5.4579,-14.92137 8.09266,-19.23387 2.63477,-4.3125 -7.55114,-14.08795 -4.82458,-16.96295 1.36328,-1.4375 7.58363,6.13128 12.96343,15.0086 5.37981,8.87733 10.765719,17.93434 12.153419,17.21559 2.77539,-1.4375 5.56445,-0.69454 8.3457,-0.69454 1.39062,0 0.53453,-8.79939 -0.32621,-17.4191 -0.86074,-8.6197 13.58475,-19.22635 14.95682,-18.5076 2.74414,1.4375 -7.2743,7.71364 -5.88783,11.37978 1.79741,4.75275 3.97736,3.72435 6.51837,8.03685 2.54102,4.3125 4.82064,10.11398 7.38477,15.09375 5.12258,9.94853 18.68168,18.66672 15.97583,29.52455 -1.58888,6.37575 -9.85727,11.23787 -16.41969,10.90716 -7.06582,-0.35608 -11.89826,-8.01142 -16.40902,-13.46171 -5.12692,-6.19478 -8.76228,-21.18238 -11.54353,-21.18238 -2.78125,0 -2.90064,17.24565 -7.606789,24.31462 -4.28814,6.44109 -10.03028,14.75173 -17.76589,14.94174 -7.47203,0.18353 -15.21364,-9.44771 -17.84841,-13.57271 -2.63476,-4.125 8.37776,-16.82389 12.24095,-25.38778 z"
     class="arc-grey"
     id="path11"
     sodipodi:nodetypes="asssssssssaaaasaasa" />
  <path
     id="relayImpulsePath"
     d="m 120.52173,176.26564 c 5.30788,0.70591 5.15356,22.91992 3.95712,33.50047 -1.19645,10.58054 16.2219,27.76351 20.90231,27.04539"
     class="arc-path relay"
     sodipodi:nodetypes="csc" />
  <path
     id="motorImpulsePath"
     d="m 144.3912,238.93849 c 80.53585,51.466 123.63535,-9.95368 207.25,-101.29088 21.18159,-23.1379 61.44258,-9.46882 93.88135,-6.51855"
     class="arc-path motor"
     sodipodi:nodetypes="csc" />
  <circle
     id="reflexImpulseDot"
     cx="556.61237"
     cy="287.66757"
     r="6" />
  <polygon
     points="476,198 463,190 463,205 "
     class="arc-arrow"
     id="polygon12-2"
     transform="rotate(19.885281,356.86684,-560.93252)"
     style="fill:#1d5db9" />
  <polygon
     points="476,198 463,190 463,205 "
     class="arc-arrow"
     id="polygon12-2-3"
     transform="rotate(-60.252582,413.21172,316.99114)"
     style="fill:#1d5db9" />
  <text
     x="618.98016"
     y="239.86209"
     class="arc-caption small"
     id="text13">Patellar tendon</text>
  <text
     x="64.242584"
     y="105.6061"
     class="arc-caption"
     id="text15">Spinal Cord</text>
  <text
     x="36"
     y="34"
     class="arc-title"
     id="text16">Patellar (Knee-Jerk) Reflex</text>
  <polygon
     points="405,206 407,220 420,212 "
     class="arc-arrow"
     id="polygon11"
     transform="rotate(-34.45078,256.75532,257.69778)"
     style="fill:#006b5d;fill-opacity:0.99767441" />
  <g
     id="g12"
     inkscape:label="upperleg">
    <path
       d="m 346.01669,156.89839 c 63.29463,-46.77767 144.90256,-51.69022 203.89461,-11.08821 31.72644,22.22977 44.59275,54.17886 27.45459,78.40161 -25.70724,36.33413 -91.19388,42.17325 -135.07388,19.84515 -50.07812,-25.08508 -95.80526,-60.72341 -96.27532,-87.15855 z"
       class="arc-limb"
       id="path1" />
    <path
       d="m 515.73472,229.96177 c -6.50829,14.20267 -55.84417,11.22843 -86.33879,-3.43202 -20.21165,-9.81556 -36.42767,-19.9167 -31.11824,-27.46438 6.23117,-7.30853 30.80159,-8.10111 51.50875,0.97225 19.57231,8.34354 62.11222,21.09203 65.94828,29.92415 z"
       class="arc-muscle"
       id="path2-0"
       sodipodi:nodetypes="ccccc"
       style="fill:#ff8668;stroke:#d15a3f;stroke-width:1.20311" />
    <path
       d="m 494.61239,130.66757 c 26,-14 53,-11 72,10"
       class="arc-fibers"
       id="path3" />
    <path
       d="m 500.61239,156.66757 c 26,-13 53,-9 73,12"
       class="arc-fibers"
       id="path4" />
    <path
       d="m 508.61239,183.66757 c 24,-11 49,-6 66,11"
       class="arc-fibers"
       id="path5" />
    <ellipse
       cx="571.40912"
       cy="231.01837"
       class="arc-patella"
       id="circle5"
       rx="11.857836"
       ry="18.876945"
       style="fill:#f6f9ff;fill-opacity:1;stroke:#c7d2e7;stroke-opacity:0" />
    <text
       x="470.05371"
       y="109.33598"
       class="arc-caption"
       id="text12">Quadriceps</text>
    <path
       style="display:inline;opacity:1;fill:#f6f9ff;fill-opacity:1;stroke:none;stroke-width:1.8;stroke-linecap:round;stroke-dasharray:5.4, 5.4;stroke-dashoffset:0.36;stroke-opacity:1"
       d="M 526.41011,200.19189 C 493.07106,189.78822 433.80165,169.6114 401.80243,157.3161 369.8032,145.02081 365.07435,140.60722 359.24192,143.28705 c -5.83243,2.67983 -12.76808,12.45278 -14.73844,18.36398 -1.97036,5.9112 1.02458,7.96037 5.3595,8.74853 4.33492,0.78815 10.00954,0.31526 29.31971,4.01968 19.31018,3.70442 52.25449,11.58583 80.7072,20.17684 28.45271,8.591 52.4122,17.89106 66.12617,24.59044 13.71397,6.69938 17.18179,10.79771 20.72853,12.92574 3.54675,2.12802 7.1722,2.28565 8.98496,0.55167 1.81276,-1.73398 1.81276,-5.35943 2.83738,-8.98499 1.02463,-3.62556 3.0738,-7.25101 5.9112,-9.22141 2.8374,-1.97039 6.46285,-2.28565 4.5712,-2.75855 -1.89165,-0.4729 -9.30018,-1.10341 -42.63922,-11.50709 z"
       id="path12"
       inkscape:path-effect="#path-effect12"
       inkscape:original-d="M 552.34047,209.96504 C 493.07106,189.78822 433.80165,169.6114 374.53224,149.43458 c -4.72904,-4.41377 -9.45789,-8.82736 -14.18683,-13.24104 -6.93592,9.77334 -13.87156,19.5463 -20.80735,29.31944 2.99506,2.04925 5.99,4.09842 8.98499,6.14763 5.67485,-0.4729 11.34947,-0.94579 17.0242,-1.41868 32.94562,7.88172 65.88993,15.76314 98.83489,23.64471 23.96046,9.30044 47.91995,18.6005 71.87993,27.90076 3.46796,4.0985 6.93578,8.19683 10.40367,12.29525 3.6256,0.15763 7.25105,0.31526 10.87657,0.47289 0,-3.62559 0,-7.25104 0,-10.87656 2.04925,-3.6256 4.09842,-7.25105 6.14762,-10.87657 3.6256,-0.31527 7.25105,-0.63053 10.87657,-0.94579 -7.40882,-0.63054 -14.81735,-1.26105 -22.22603,-1.89158 z"
       inkscape:label="path5" />
  </g>
  <path
     d="m 397.92712,152.74222 c 7.4981,-29.65265 82.18269,-34.2627 130.41359,-11.59589 31.98308,15.21982 58.00246,31.86068 51.23412,48.01387 -8.1933,15.87396 -45.0212,22.69484 -77.62985,9.05774 -30.78402,-12.42691 -96.82353,-28.71823 -104.01786,-45.47572 z"
     class="arc-muscle"
     id="path2"
     sodipodi:nodetypes="ccccc"
     inkscape:label="quad" />
  <path
     id="sensoryImpulsePath"
     d="m 571.92651,276.5805 c -40.62981,-10.05742 -50.52562,-22.04618 -115.90168,-39.29434 -60.4332,-15.94409 -58.83937,-27.199 -90.48062,-29.56916 -26.16716,-1.96011 -39.4998,1.4795 -77.63506,13.03304 -38.13527,11.55355 -71.5486,55.00417 -79.52,44.93946 -15.9428,-20.12942 23.96078,-181.187974 -82.2664,-89.16946"
     class="arc-path sensory"
     sodipodi:nodetypes="csassc" />
  <polygon
     points="463,205 476,198 463,190 "
     class="arc-arrow"
     id="polygon12"
     transform="rotate(-33.045995,599.64649,134.39301)" />
  <path
     d="m 576.85759,194.53728 c -5.89963,4.92223 -3.55203,17.00993 -4.65427,21.55751"
     class="arc-tendon"
     id="path9-0"
     style="fill:none;stroke:#f4e6b2;stroke-width:9.3062;stroke-linecap:round;stroke-dasharray:none"
     sodipodi:nodetypes="cc" />
  <g
     id="g13">
    <text
       x="223.84169"
       y="154.97261"
       class="arc-caption"
       id="text12-6"
       style="font-weight:700;font-size:16px;font-family:Outfit, 'Segoe UI', sans-serif;fill:#26456f"><tspan
         sodipodi:role="line"
         id="tspan1"
         x="223.84169"
         y="154.97261">Nerve</tspan><tspan
         sodipodi:role="line"
         id="tspan2"
         x="223.84169"
         y="174.97261">fibre</tspan></text>
    <path
       style="fill:#f6f9ff;fill-opacity:1;stroke:#26456f;stroke-width:2;stroke-linecap:round;stroke-dasharray:none;stroke-opacity:1"
       d="m 270.62826,219.64033 c -0.37045,-1.89933 -0.74089,-3.79863 -10.87329,-3.47178 -10.1324,0.32685 -30.02603,2.87983 -39.82696,5.01288 -9.80092,2.13306 -9.50879,3.84608 -9.31415,5.13977 0.19464,1.29368 0.29178,2.16801 0.38893,3.04233"
       id="path8"
       inkscape:path-effect="#path-effect8"
       inkscape:original-d="m 270.62826,219.64033 c -0.37045,-1.89933 -0.74089,-3.79863 -1.11135,-5.698 -19.89434,2.55307 -39.78797,5.10605 -59.68196,7.65907 0.29214,1.71309 0.58427,3.42611 0.8764,5.13917 0.0971,0.87432 0.19429,1.74864 0.29144,2.62296"
       sodipodi:nodetypes="ccccc"
       transform="rotate(-23.410705,276.61594,235.03163)" />
    <rect
       style="opacity:0.82684;fill:#fffddf;fill-opacity:1;stroke:#26456f;stroke-width:0;stroke-linecap:round;stroke-dasharray:none;stroke-opacity:1"
       id="rect8"
       width="51.762108"
       height="22.466305"
       x="56.4772"
       y="325.80127"
       rx="4.3357658"
       ry="4.2341728"
       transform="matrix(0.87705473,-0.48039046,0.51561535,0.85682017,0,0)" />
    <path
       style="opacity:1;fill:none;fill-opacity:0.493023;stroke:#26456f;stroke-width:1.8;stroke-linecap:round;stroke-dasharray:5.4, 5.4;stroke-dashoffset:0.36;stroke-opacity:1"
       d="m 236.81819,230.45591 c 0,-16.25916 0,-32.51832 0,-48.77748"
       id="path10"
       inkscape:path-effect="#path-effect10"
       inkscape:original-d="m 236.81819,230.45591 c 0,-16.25916 0,-32.51832 0,-48.77748"
       transform="matrix(1,0,0,1.0407989,0,-7.3974814)" />
  </g>
</svg>
